<svg xmlns="http://www.w3.org/2000/svg" width="1212" height="712" viewBox="0 0 1212 712" font-family="Helvetica,Arial,sans-serif">
<rect width="1212" height="712" fill="#fff"/>
<path d="M75.7 384.5 L101.7 70.0 L600.5 161.3 L814.0 204.7 L816.4 231.6 L842.1 240.7 L833.0 447.3 L70.0 577.5 L251.9 486.4 L285.7 489.6 L291.4 395.5 L82.0 387.4 Z" fill="#F2F7EC" stroke="#12638F" stroke-width="2.5"/>
<text x="70" y="34" font-size="19" font-weight="bold" fill="#12638F">Lot 9255-A · A variantas: sujungtos vilos po 85 m² su vidiniu kiemu</text>
<text x="70" y="52" font-size="12" fill="#555">Sklypelis 9 × 17 m · kiemas ir baseinas uždaryti tarp korpusų ir kaimyninių sienų · baseinas įeina į svetainę</text>
<polygon points="111.7 303.7 123.7 303.7 135.7 303.8 147.7 303.8 159.7 303.9 171.7 304.0 183.7 304.0 195.7 304.1 207.7 304.1 219.7 304.2 231.7 304.3 243.7 304.3 255.7 304.4 267.7 304.4 279.7 304.5 291.7 304.6 303.7 304.6 315.7 304.7 327.7 304.7 339.7 304.8 351.7 304.9 363.7 304.9 375.7 305.0 387.7 305.0 399.7 305.1 411.7 305.2 423.7 305.2 435.7 305.3 447.7 305.3 459.7 305.4 471.7 305.5 483.7 305.5 495.7 305.6 507.7 305.6 519.7 305.7 531.7 305.8 543.7 305.8 555.7 305.9 567.7 305.9 579.7 306.0 591.7 306.1 603.7 306.1 615.7 306.2 627.7 306.2 639.7 306.3 651.7 306.4 663.7 306.4 675.7 306.5 687.7 306.5 699.7 306.6 711.7 306.7 723.7 306.7 735.7 306.8 747.7 306.8 759.7 306.9 771.7 307.0 783.7 307.0 795.7 307.1 807.7 307.1 819.7 307.2 819.7 343.2 807.7 343.1 795.7 343.1 783.7 343.0 771.7 343.0 759.7 342.9 747.7 342.8 735.7 342.8 723.7 342.7 711.7 342.7 699.7 342.6 687.7 342.5 675.7 342.5 663.7 342.4 651.7 342.4 639.7 342.3 627.7 342.2 615.7 342.2 603.7 342.1 591.7 342.1 579.7 342.0 567.7 341.9 555.7 341.9 543.7 341.8 531.7 341.8 519.7 341.7 507.7 341.6 495.7 341.6 483.7 341.5 471.7 341.5 459.7 341.4 447.7 341.3 435.7 341.3 423.7 341.2 411.7 341.2 399.7 341.1 387.7 341.0 375.7 341.0 363.7 340.9 351.7 340.9 339.7 340.8 327.7 340.7 315.7 340.7 303.7 340.6 291.7 340.6 279.7 340.5 267.7 340.4 255.7 340.4 243.7 340.3 231.7 340.3 219.7 340.2 207.7 340.1 195.7 340.1 183.7 340.0 171.7 340.0 159.7 339.9 147.7 339.8 135.7 339.8 123.7 339.7 111.7 339.7" fill="#E8E2D5" stroke="#C9BFA8" stroke-width="1"/>
<circle cx="219.7" cy="162.5" r="52" fill="#DFF0D8" opacity="0.75"/>
<text x="219.7" y="150.5" font-size="12.5" fill="#4A7A3A" font-weight="bold" text-anchor="middle">BENDRA ZONA</text>
<text x="219.7" y="165.5" font-size="10.5" fill="#4A7A3A" text-anchor="middle">baseinas · sporto zona</text>
<text x="219.7" y="179.5" font-size="10.5" fill="#4A7A3A" text-anchor="middle">registratūra · automobiliai</text>
<rect x="642.7" y="351.4" width="54.0" height="102.0" fill="#fff" stroke="#0983BD" stroke-width="1.2"/>
<rect x="642.7" y="360.4" width="54.0" height="39.0" fill="#0983BD" opacity="0.9" rx="2"/>
<rect x="642.7" y="399.4" width="54.0" height="36.0" fill="#EAF3E4" opacity="1.0" rx="0"/>
<rect x="642.7" y="435.4" width="54.0" height="18.0" fill="#0983BD" opacity="0.75" rx="2"/>
<rect x="658.9" y="405.4" width="21.6" height="37.2" fill="#7FD4E8" stroke="#4BA8C4" stroke-width="0.8" rx="3"/>
<text x="669.7" y="383.6" font-size="12" font-weight="bold" fill="#fff" text-anchor="middle">1</text>
<rect x="624.7" y="195.4" width="54.0" height="102.0" fill="#fff" stroke="#0983BD" stroke-width="1.2"/>
<rect x="624.7" y="249.4" width="54.0" height="39.0" fill="#0983BD" opacity="0.9" rx="2"/>
<rect x="624.7" y="213.4" width="54.0" height="36.0" fill="#EAF3E4" opacity="1.0" rx="0"/>
<rect x="624.7" y="195.4" width="54.0" height="18.0" fill="#0983BD" opacity="0.75" rx="2"/>
<rect x="640.9" y="206.2" width="21.6" height="37.2" fill="#7FD4E8" stroke="#4BA8C4" stroke-width="0.8" rx="3"/>
<text x="651.7" y="273.2" font-size="12" font-weight="bold" fill="#fff" text-anchor="middle">2</text>
<rect x="588.7" y="351.2" width="54.0" height="102.0" fill="#fff" stroke="#0983BD" stroke-width="1.2"/>
<rect x="588.7" y="360.2" width="54.0" height="39.0" fill="#0983BD" opacity="0.9" rx="2"/>
<rect x="588.7" y="399.2" width="54.0" height="36.0" fill="#EAF3E4" opacity="1.0" rx="0"/>
<rect x="588.7" y="435.2" width="54.0" height="18.0" fill="#0983BD" opacity="0.75" rx="2"/>
<rect x="604.9" y="405.2" width="21.6" height="37.2" fill="#7FD4E8" stroke="#4BA8C4" stroke-width="0.8" rx="3"/>
<text x="615.7" y="383.4" font-size="12" font-weight="bold" fill="#fff" text-anchor="middle">3</text>
<rect x="570.7" y="195.1" width="54.0" height="102.0" fill="#fff" stroke="#0983BD" stroke-width="1.2"/>
<rect x="570.7" y="249.1" width="54.0" height="39.0" fill="#0983BD" opacity="0.9" rx="2"/>
<rect x="570.7" y="213.1" width="54.0" height="36.0" fill="#EAF3E4" opacity="1.0" rx="0"/>
<rect x="570.7" y="195.1" width="54.0" height="18.0" fill="#0983BD" opacity="0.75" rx="2"/>
<rect x="586.9" y="205.9" width="21.6" height="37.2" fill="#7FD4E8" stroke="#4BA8C4" stroke-width="0.8" rx="3"/>
<text x="597.7" y="272.9" font-size="12" font-weight="bold" fill="#fff" text-anchor="middle">4</text>
<rect x="534.7" y="350.9" width="54.0" height="102.0" fill="#fff" stroke="#0983BD" stroke-width="1.2"/>
<rect x="534.7" y="359.9" width="54.0" height="39.0" fill="#0983BD" opacity="0.9" rx="2"/>
<rect x="534.7" y="398.9" width="54.0" height="36.0" fill="#EAF3E4" opacity="1.0" rx="0"/>
<rect x="534.7" y="434.9" width="54.0" height="18.0" fill="#0983BD" opacity="0.75" rx="2"/>
<rect x="550.9" y="404.9" width="21.6" height="37.2" fill="#7FD4E8" stroke="#4BA8C4" stroke-width="0.8" rx="3"/>
<text x="561.7" y="383.1" font-size="12" font-weight="bold" fill="#fff" text-anchor="middle">5</text>
<rect x="516.7" y="194.8" width="54.0" height="102.0" fill="#fff" stroke="#0983BD" stroke-width="1.2"/>
<rect x="516.7" y="248.8" width="54.0" height="39.0" fill="#0983BD" opacity="0.9" rx="2"/>
<rect x="516.7" y="212.8" width="54.0" height="36.0" fill="#EAF3E4" opacity="1.0" rx="0"/>
<rect x="516.7" y="194.8" width="54.0" height="18.0" fill="#0983BD" opacity="0.75" rx="2"/>
<rect x="532.9" y="205.6" width="21.6" height="37.2" fill="#7FD4E8" stroke="#4BA8C4" stroke-width="0.8" rx="3"/>
<text x="543.7" y="272.6" font-size="12" font-weight="bold" fill="#fff" text-anchor="middle">6</text>
<rect x="480.7" y="350.6" width="54.0" height="102.0" fill="#fff" stroke="#0983BD" stroke-width="1.2"/>
<rect x="480.7" y="359.6" width="54.0" height="39.0" fill="#0983BD" opacity="0.9" rx="2"/>
<rect x="480.7" y="398.6" width="54.0" height="36.0" fill="#EAF3E4" opacity="1.0" rx="0"/>
<rect x="480.7" y="434.6" width="54.0" height="18.0" fill="#0983BD" opacity="0.75" rx="2"/>
<rect x="496.9" y="404.6" width="21.6" height="37.2" fill="#7FD4E8" stroke="#4BA8C4" stroke-width="0.8" rx="3"/>
<text x="507.7" y="382.8" font-size="12" font-weight="bold" fill="#fff" text-anchor="middle">7</text>
<rect x="462.7" y="194.5" width="54.0" height="102.0" fill="#fff" stroke="#0983BD" stroke-width="1.2"/>
<rect x="462.7" y="248.5" width="54.0" height="39.0" fill="#0983BD" opacity="0.9" rx="2"/>
<rect x="462.7" y="212.5" width="54.0" height="36.0" fill="#EAF3E4" opacity="1.0" rx="0"/>
<rect x="462.7" y="194.5" width="54.0" height="18.0" fill="#0983BD" opacity="0.75" rx="2"/>
<rect x="478.9" y="205.3" width="21.6" height="37.2" fill="#7FD4E8" stroke="#4BA8C4" stroke-width="0.8" rx="3"/>
<text x="489.7" y="272.3" font-size="12" font-weight="bold" fill="#fff" text-anchor="middle">8</text>
<rect x="426.7" y="350.4" width="54.0" height="102.0" fill="#fff" stroke="#0983BD" stroke-width="1.2"/>
<rect x="426.7" y="359.4" width="54.0" height="39.0" fill="#0983BD" opacity="0.9" rx="2"/>
<rect x="426.7" y="398.4" width="54.0" height="36.0" fill="#EAF3E4" opacity="1.0" rx="0"/>
<rect x="426.7" y="434.4" width="54.0" height="18.0" fill="#0983BD" opacity="0.75" rx="2"/>
<rect x="442.9" y="404.4" width="21.6" height="37.2" fill="#7FD4E8" stroke="#4BA8C4" stroke-width="0.8" rx="3"/>
<text x="453.7" y="382.6" font-size="12" font-weight="bold" fill="#fff" text-anchor="middle">9</text>
<rect x="408.7" y="194.3" width="54.0" height="102.0" fill="#fff" stroke="#65A9D1" stroke-width="1.2"/>
<rect x="408.7" y="248.3" width="54.0" height="39.0" fill="#65A9D1" opacity="0.9" rx="2"/>
<rect x="408.7" y="212.3" width="54.0" height="36.0" fill="#EAF3E4" opacity="1.0" rx="0"/>
<rect x="408.7" y="194.3" width="54.0" height="18.0" fill="#65A9D1" opacity="0.75" rx="2"/>
<rect x="424.9" y="205.1" width="21.6" height="37.2" fill="#7FD4E8" stroke="#4BA8C4" stroke-width="0.8" rx="3"/>
<text x="435.7" y="272.1" font-size="12" font-weight="bold" fill="#fff" text-anchor="middle">10</text>
<rect x="372.7" y="350.1" width="54.0" height="102.0" fill="#fff" stroke="#65A9D1" stroke-width="1.2"/>
<rect x="372.7" y="359.1" width="54.0" height="39.0" fill="#65A9D1" opacity="0.9" rx="2"/>
<rect x="372.7" y="398.1" width="54.0" height="36.0" fill="#EAF3E4" opacity="1.0" rx="0"/>
<rect x="372.7" y="434.1" width="54.0" height="18.0" fill="#65A9D1" opacity="0.75" rx="2"/>
<rect x="388.9" y="404.1" width="21.6" height="37.2" fill="#7FD4E8" stroke="#4BA8C4" stroke-width="0.8" rx="3"/>
<text x="399.7" y="382.3" font-size="12" font-weight="bold" fill="#fff" text-anchor="middle">11</text>
<rect x="354.7" y="194.0" width="54.0" height="102.0" fill="#fff" stroke="#65A9D1" stroke-width="1.2"/>
<rect x="354.7" y="248.0" width="54.0" height="39.0" fill="#65A9D1" opacity="0.9" rx="2"/>
<rect x="354.7" y="212.0" width="54.0" height="36.0" fill="#EAF3E4" opacity="1.0" rx="0"/>
<rect x="354.7" y="194.0" width="54.0" height="18.0" fill="#65A9D1" opacity="0.75" rx="2"/>
<rect x="370.9" y="204.8" width="21.6" height="37.2" fill="#7FD4E8" stroke="#4BA8C4" stroke-width="0.8" rx="3"/>
<text x="381.7" y="271.8" font-size="12" font-weight="bold" fill="#fff" text-anchor="middle">12</text>
<rect x="318.7" y="349.8" width="54.0" height="102.0" fill="#fff" stroke="#65A9D1" stroke-width="1.2"/>
<rect x="318.7" y="358.8" width="54.0" height="39.0" fill="#65A9D1" opacity="0.9" rx="2"/>
<rect x="318.7" y="397.8" width="54.0" height="36.0" fill="#EAF3E4" opacity="1.0" rx="0"/>
<rect x="318.7" y="433.8" width="54.0" height="18.0" fill="#65A9D1" opacity="0.75" rx="2"/>
<rect x="334.9" y="403.8" width="21.6" height="37.2" fill="#7FD4E8" stroke="#4BA8C4" stroke-width="0.8" rx="3"/>
<text x="345.7" y="382.0" font-size="12" font-weight="bold" fill="#fff" text-anchor="middle">13</text>
<rect x="300.7" y="193.7" width="54.0" height="102.0" fill="#fff" stroke="#65A9D1" stroke-width="1.2"/>
<rect x="300.7" y="247.7" width="54.0" height="39.0" fill="#65A9D1" opacity="0.9" rx="2"/>
<rect x="300.7" y="211.7" width="54.0" height="36.0" fill="#EAF3E4" opacity="1.0" rx="0"/>
<rect x="300.7" y="193.7" width="54.0" height="18.0" fill="#65A9D1" opacity="0.75" rx="2"/>
<rect x="316.9" y="204.5" width="21.6" height="37.2" fill="#7FD4E8" stroke="#4BA8C4" stroke-width="0.8" rx="3"/>
<text x="327.7" y="271.5" font-size="12" font-weight="bold" fill="#fff" text-anchor="middle">14</text>
<rect x="246.7" y="193.5" width="54.0" height="102.0" fill="#fff" stroke="#65A9D1" stroke-width="1.2"/>
<rect x="246.7" y="247.5" width="54.0" height="39.0" fill="#65A9D1" opacity="0.9" rx="2"/>
<rect x="246.7" y="211.5" width="54.0" height="36.0" fill="#EAF3E4" opacity="1.0" rx="0"/>
<rect x="246.7" y="193.5" width="54.0" height="18.0" fill="#65A9D1" opacity="0.75" rx="2"/>
<rect x="262.9" y="204.3" width="21.6" height="37.2" fill="#7FD4E8" stroke="#4BA8C4" stroke-width="0.8" rx="3"/>
<text x="273.7" y="271.3" font-size="12" font-weight="bold" fill="#fff" text-anchor="middle">15</text>
<rect x="192.7" y="193.2" width="54.0" height="102.0" fill="#fff" stroke="#65A9D1" stroke-width="1.2"/>
<rect x="192.7" y="247.2" width="54.0" height="39.0" fill="#65A9D1" opacity="0.9" rx="2"/>
<rect x="192.7" y="211.2" width="54.0" height="36.0" fill="#EAF3E4" opacity="1.0" rx="0"/>
<rect x="192.7" y="193.2" width="54.0" height="18.0" fill="#65A9D1" opacity="0.75" rx="2"/>
<rect x="208.9" y="204.0" width="21.6" height="37.2" fill="#7FD4E8" stroke="#4BA8C4" stroke-width="0.8" rx="3"/>
<text x="219.7" y="271.0" font-size="12" font-weight="bold" fill="#fff" text-anchor="middle">16</text>
<rect x="138.7" y="192.9" width="54.0" height="102.0" fill="#fff" stroke="#65A9D1" stroke-width="1.2"/>
<rect x="138.7" y="246.9" width="54.0" height="39.0" fill="#65A9D1" opacity="0.9" rx="2"/>
<rect x="138.7" y="210.9" width="54.0" height="36.0" fill="#EAF3E4" opacity="1.0" rx="0"/>
<rect x="138.7" y="192.9" width="54.0" height="18.0" fill="#65A9D1" opacity="0.75" rx="2"/>
<rect x="154.9" y="203.7" width="21.6" height="37.2" fill="#7FD4E8" stroke="#4BA8C4" stroke-width="0.8" rx="3"/>
<text x="165.7" y="270.7" font-size="12" font-weight="bold" fill="#fff" text-anchor="middle">17</text>
<rect x="940.0555117586248" y="76" width="145" height="277" fill="#fff" stroke="#cfdae3" stroke-width="1.2" rx="8"/>
<text x="954.0555117586248" y="96" font-size="12.5" font-weight="bold" fill="#12638F">Vienas vienetas, 9 × 17 m</text>
<rect x="954.0555117586248" y="110.0" width="117.0" height="19.5" fill="#E8E2D5" opacity="1"/>
<text x="1012.6" y="123.8" font-size="10.5" fill="#7a6a4a" text-anchor="middle" font-weight="bold">įėjimas</text>
<rect x="954.0555117586248" y="129.5" width="117.0" height="84.5" fill="#0983BD" opacity="0.92"/>
<text x="1012.6" y="175.8" font-size="10.5" fill="#fff" text-anchor="middle" font-weight="bold">2 miegamieji · virtuvė</text>
<rect x="954.0555117586248" y="214.0" width="117.0" height="78.0" fill="#EAF3E4" opacity="1"/>
<text x="1012.6" y="257.0" font-size="10.5" fill="#3d5a2a" text-anchor="middle" font-weight="bold">VIDINIS KIEMAS</text>
<rect x="954.0555117586248" y="292.0" width="117.0" height="39.0" fill="#12638F" opacity="0.92"/>
<text x="1012.6" y="315.5" font-size="10.5" fill="#fff" text-anchor="middle" font-weight="bold">svetainė</text>
<rect x="989.2" y="227.0" width="46.8" height="80.6" fill="#7FD4E8" stroke="#4BA8C4" stroke-width="1.2" rx="3"/>
<text x="1012.6" y="268.6" font-size="10" fill="#12638F" text-anchor="middle" font-weight="bold">baseinas</text>
<line x1="954.1" y1="129.5" x2="954.1" y2="331.0" stroke="#12638F" stroke-width="3.5"/>
<line x1="1071.1" y1="129.5" x2="1071.1" y2="331.0" stroke="#12638F" stroke-width="3.5"/>
<text x="1012.6" y="347.0" font-size="10" fill="#12638F" text-anchor="middle">storos linijos = bendros sienos su kaimynais</text>
<text x="1012.6" y="361.0" font-size="10" fill="#4BA8C4" text-anchor="middle">baseinas įeina po svetainės stogu</text>
<path d="M82.3 387.5 L291.1 395.3 L285.7 489.5 L252.1 486.5 Z" fill="#F5D9D9" stroke="#C0504D" stroke-width="1.5" stroke-dasharray="6 4"/>
<text x="183.7" y="438.5" font-size="10" fill="#C0504D" text-anchor="middle" font-weight="bold">SVETIMAS SKLYPAS 246 m²</text>
<circle cx="831.7" cy="325.3" r="7" fill="#12638F"/>
<text x="821.7" y="313.3" font-size="11" fill="#12638F" font-weight="bold" text-anchor="end">ĮVAŽIAVIMAS</text>
<g transform="translate(852,55)"><line x1="0" y1="26" x2="0" y2="-10" stroke="#12638F" stroke-width="2"/><polygon points="0,-16 -5,-4 5,-4" fill="#12638F"/><text x="0" y="40" font-size="13" fill="#12638F" text-anchor="middle" font-weight="bold">Š</text></g>
<line x1="70" y1="666.5334618637296" x2="190.0" y2="666.5334618637296" stroke="#333" stroke-width="2"/>
<line x1="70.0" y1="661.5334618637296" x2="70.0" y2="671.5334618637296" stroke="#333" stroke-width="2"/>
<line x1="130.0" y1="661.5334618637296" x2="130.0" y2="671.5334618637296" stroke="#333" stroke-width="2"/>
<line x1="190.0" y1="661.5334618637296" x2="190.0" y2="671.5334618637296" stroke="#333" stroke-width="2"/>
<text x="70" y="686.5334618637296" font-size="11" fill="#333">0</text><text x="190.0" y="686.5334618637296" font-size="11" fill="#333" text-anchor="middle">20 m</text>
<rect x="320" y="653.5334618637296" width="14" height="14" fill="#0983BD" rx="2"/><text x="340" y="665.5334618637296" font-size="12" fill="#333">I etapas</text>
<rect x="448" y="653.5334618637296" width="14" height="14" fill="#65A9D1" rx="2"/><text x="468" y="665.5334618637296" font-size="12" fill="#333">II etapas</text>
<rect x="576" y="653.5334618637296" width="14" height="14" fill="#EAF3E4" rx="2"/><text x="596" y="665.5334618637296" font-size="12" fill="#333">vidinis kiemas</text>
<rect x="704" y="653.5334618637296" width="14" height="14" fill="#7FD4E8" rx="2"/><text x="724" y="665.5334618637296" font-size="12" fill="#333">baseinas</text>
<text x="842" y="687" font-size="11" fill="#777" text-anchor="end">17 vienetų po 85 m² · telpa 17 · tools/siargao_planas2.py</text>
</svg>